<svg width="237" height="138" viewBox="0 0 237 138" fill="none" xmlns="http://www.w3.org/2000/svg">
<path d="M15.1568 111.96C15.5088 111.96 15.7888 112.08 15.9968 112.32C16.2208 112.544 16.3328 112.84 16.3328 113.208V127.872C16.3328 128.24 16.2208 128.544 15.9968 128.784C15.7728 129.008 15.4848 129.12 15.1328 129.12C14.7168 129.12 14.3968 128.96 14.1728 128.64L4.76475 116.232V127.872C4.76475 128.24 4.65275 128.544 4.42875 128.784C4.22075 129.008 3.94075 129.12 3.58875 129.12C3.23675 129.12 2.95675 129.008 2.74875 128.784C2.54075 128.56 2.43675 128.256 2.43675 127.872V113.208C2.43675 112.84 2.54875 112.544 2.77275 112.32C2.99675 112.08 3.28475 111.96 3.63675 111.96C4.05275 111.96 4.37275 112.12 4.59675 112.44L14.0048 124.872V113.208C14.0048 112.84 14.1088 112.544 14.3168 112.32C14.5248 112.08 14.8048 111.96 15.1568 111.96ZM29.1527 126.048C29.3767 126.048 29.5607 126.136 29.7047 126.312C29.8487 126.488 29.9207 126.712 29.9207 126.984C29.9207 127.448 29.6327 127.84 29.0567 128.16C28.4967 128.48 27.8807 128.728 27.2087 128.904C26.5527 129.08 25.9207 129.168 25.3127 129.168C23.4567 129.168 21.9927 128.632 20.9207 127.56C19.8487 126.472 19.3127 124.992 19.3127 123.12C19.3127 121.92 19.5447 120.856 20.0087 119.928C20.4887 119 21.1527 118.28 22.0007 117.768C22.8647 117.256 23.8407 117 24.9287 117C26.4967 117 27.7367 117.504 28.6487 118.512C29.5607 119.52 30.0167 120.88 30.0167 122.592C30.0167 123.232 29.7287 123.552 29.1527 123.552H21.7367C21.8967 126.032 23.0887 127.272 25.3127 127.272C25.9047 127.272 26.4167 127.192 26.8487 127.032C27.2807 126.872 27.7367 126.664 28.2167 126.408C28.2647 126.376 28.3927 126.312 28.6007 126.216C28.8247 126.104 29.0087 126.048 29.1527 126.048ZM24.9767 118.776C24.0487 118.776 23.3047 119.072 22.7447 119.664C22.1847 120.256 21.8487 121.088 21.7367 122.16H27.9287C27.8807 121.072 27.6007 120.24 27.0887 119.664C26.5927 119.072 25.8887 118.776 24.9767 118.776ZM38.9998 117C41.7998 117 43.1998 118.576 43.1998 121.728V127.968C43.1998 128.336 43.0878 128.624 42.8638 128.832C42.6558 129.024 42.3598 129.12 41.9758 129.12C41.6078 129.12 41.3118 129.016 41.0878 128.808C40.8798 128.6 40.7758 128.32 40.7758 127.968V121.848C40.7758 120.856 40.5758 120.128 40.1758 119.664C39.7918 119.2 39.1838 118.968 38.3518 118.968C37.3758 118.968 36.5918 119.272 35.9998 119.88C35.4078 120.488 35.1118 121.304 35.1118 122.328V127.968C35.1118 128.32 34.9998 128.6 34.7758 128.808C34.5678 129.016 34.2798 129.12 33.9118 129.12C33.5438 129.12 33.2478 129.016 33.0238 128.808C32.7998 128.6 32.6878 128.32 32.6878 127.968V118.2C32.6878 117.864 32.7998 117.592 33.0238 117.384C33.2638 117.16 33.5598 117.048 33.9118 117.048C34.2638 117.048 34.5438 117.152 34.7518 117.36C34.9598 117.568 35.0638 117.84 35.0638 118.176V119.16C35.4478 118.456 35.9838 117.92 36.6718 117.552C37.3598 117.184 38.1358 117 38.9998 117ZM52.8519 117C55.6359 117 57.0279 118.576 57.0279 121.728V127.968C57.0279 128.32 56.9159 128.6 56.6919 128.808C56.4679 129.016 56.1719 129.12 55.8039 129.12C55.4359 129.12 55.1399 129.016 54.9159 128.808C54.7079 128.6 54.6039 128.32 54.6039 127.968V121.752C54.6039 120.792 54.4039 120.088 54.0039 119.64C53.6199 119.192 53.0119 118.968 52.1799 118.968C51.2039 118.968 50.4199 119.272 49.8279 119.88C49.2359 120.488 48.9399 121.304 48.9399 122.328V127.968C48.9399 128.32 48.8279 128.6 48.6039 128.808C48.3959 129.016 48.1079 129.12 47.7399 129.12C47.3719 129.12 47.0759 129.016 46.8519 128.808C46.6279 128.6 46.5159 128.32 46.5159 127.968V113.112C46.5159 112.76 46.6279 112.48 46.8519 112.272C47.0919 112.064 47.3959 111.96 47.7639 111.96C48.1159 111.96 48.3959 112.064 48.6039 112.272C48.8279 112.464 48.9399 112.728 48.9399 113.064V119.064C49.3399 118.392 49.8759 117.88 50.5479 117.528C51.2199 117.176 51.9879 117 52.8519 117ZM69.4161 117.048C69.7841 117.048 70.0721 117.152 70.2801 117.36C70.5041 117.568 70.6161 117.856 70.6161 118.224V127.992C70.6161 128.328 70.5041 128.6 70.2801 128.808C70.0561 129.016 69.7601 129.12 69.3921 129.12C69.0561 129.12 68.7841 129.024 68.5761 128.832C68.3681 128.624 68.2641 128.352 68.2641 128.016V127.104C67.8961 127.776 67.3841 128.288 66.7281 128.64C66.0881 128.992 65.3681 129.168 64.5681 129.168C61.7201 129.168 60.2961 127.6 60.2961 124.464V118.224C60.2961 117.856 60.4001 117.568 60.6081 117.36C60.8321 117.152 61.1361 117.048 61.5201 117.048C61.8881 117.048 62.1761 117.152 62.3841 117.36C62.6081 117.568 62.7201 117.856 62.7201 118.224V124.44C62.7201 125.384 62.9121 126.08 63.2961 126.528C63.6801 126.976 64.2721 127.2 65.0721 127.2C66.0161 127.2 66.7681 126.896 67.3281 126.288C67.9041 125.68 68.1921 124.872 68.1921 123.864V118.224C68.1921 117.872 68.3041 117.592 68.5281 117.384C68.7521 117.16 69.0481 117.048 69.4161 117.048ZM87.4481 117C90.0721 117 91.3841 118.576 91.3841 121.728V127.968C91.3841 128.336 91.2721 128.624 91.0481 128.832C90.8241 129.024 90.5281 129.12 90.1601 129.12C89.8081 129.12 89.5201 129.024 89.2961 128.832C89.0721 128.624 88.9601 128.336 88.9601 127.968V121.752C88.9601 120.776 88.7841 120.072 88.4321 119.64C88.0801 119.192 87.5281 118.968 86.7761 118.968C85.8961 118.968 85.2001 119.272 84.6881 119.88C84.1761 120.472 83.9201 121.288 83.9201 122.328V127.968C83.9201 128.336 83.8081 128.624 83.5841 128.832C83.3601 129.024 83.0641 129.12 82.6961 129.12C82.3441 129.12 82.0561 129.024 81.8321 128.832C81.6081 128.624 81.4961 128.336 81.4961 127.968V121.752C81.4961 120.776 81.3201 120.072 80.9681 119.64C80.6161 119.192 80.0641 118.968 79.3121 118.968C78.4321 118.968 77.7281 119.272 77.2001 119.88C76.6881 120.472 76.4321 121.288 76.4321 122.328V127.968C76.4321 128.336 76.3201 128.624 76.0961 128.832C75.8721 129.024 75.5841 129.12 75.2321 129.12C74.8801 129.12 74.5841 129.024 74.3441 128.832C74.1201 128.624 74.0081 128.336 74.0081 127.968V118.2C74.0081 117.848 74.1281 117.568 74.3681 117.36C74.6081 117.152 74.8961 117.048 75.2321 117.048C75.5681 117.048 75.8401 117.152 76.0481 117.36C76.2721 117.552 76.3841 117.824 76.3841 118.176V119.064C76.7361 118.392 77.2241 117.88 77.8481 117.528C78.4721 117.176 79.1921 117 80.0081 117C80.9041 117 81.6401 117.184 82.2161 117.552C82.8081 117.92 83.2481 118.488 83.5361 119.256C83.8881 118.568 84.4081 118.024 85.0961 117.624C85.7841 117.208 86.5681 117 87.4481 117ZM107.344 117C110.144 117 111.544 118.576 111.544 121.728V127.968C111.544 128.336 111.432 128.624 111.208 128.832C111 129.024 110.704 129.12 110.32 129.12C109.952 129.12 109.656 129.016 109.432 128.808C109.224 128.6 109.12 128.32 109.12 127.968V121.848C109.12 120.856 108.92 120.128 108.52 119.664C108.136 119.2 107.528 118.968 106.696 118.968C105.72 118.968 104.936 119.272 104.344 119.88C103.752 120.488 103.456 121.304 103.456 122.328V127.968C103.456 128.32 103.344 128.6 103.12 128.808C102.912 129.016 102.624 129.12 102.256 129.12C101.888 129.12 101.592 129.016 101.368 128.808C101.144 128.6 101.032 128.32 101.032 127.968V118.2C101.032 117.864 101.144 117.592 101.368 117.384C101.608 117.16 101.904 117.048 102.256 117.048C102.608 117.048 102.888 117.152 103.096 117.36C103.304 117.568 103.408 117.84 103.408 118.176V119.16C103.792 118.456 104.328 117.92 105.016 117.552C105.704 117.184 106.48 117 107.344 117ZM119.948 129.168C118.796 129.168 117.78 128.92 116.9 128.424C116.036 127.928 115.364 127.224 114.884 126.312C114.42 125.384 114.188 124.312 114.188 123.096C114.188 121.864 114.42 120.792 114.884 119.88C115.364 118.952 116.036 118.24 116.9 117.744C117.78 117.248 118.796 117 119.948 117C121.1 117 122.108 117.248 122.972 117.744C123.852 118.24 124.524 118.952 124.988 119.88C125.468 120.792 125.708 121.864 125.708 123.096C125.708 124.312 125.468 125.384 124.988 126.312C124.524 127.224 123.852 127.928 122.972 128.424C122.108 128.92 121.1 129.168 119.948 129.168ZM119.948 127.248C121.02 127.248 121.836 126.896 122.396 126.192C122.972 125.488 123.26 124.456 123.26 123.096C123.26 121.752 122.972 120.728 122.396 120.024C121.82 119.304 121.004 118.944 119.948 118.944C118.892 118.944 118.076 119.304 117.5 120.024C116.924 120.728 116.636 121.752 116.636 123.096C116.636 124.456 116.916 125.488 117.476 126.192C118.052 126.896 118.876 127.248 119.948 127.248ZM148.175 117C150.799 117 152.111 118.576 152.111 121.728V127.968C152.111 128.336 151.999 128.624 151.775 128.832C151.551 129.024 151.255 129.12 150.887 129.12C150.535 129.12 150.247 129.024 150.023 128.832C149.799 128.624 149.687 128.336 149.687 127.968V121.752C149.687 120.776 149.511 120.072 149.159 119.64C148.807 119.192 148.255 118.968 147.503 118.968C146.623 118.968 145.927 119.272 145.415 119.88C144.903 120.472 144.647 121.288 144.647 122.328V127.968C144.647 128.336 144.535 128.624 144.311 128.832C144.087 129.024 143.791 129.12 143.423 129.12C143.071 129.12 142.783 129.024 142.559 128.832C142.335 128.624 142.223 128.336 142.223 127.968V121.752C142.223 120.776 142.047 120.072 141.695 119.64C141.343 119.192 140.791 118.968 140.039 118.968C139.159 118.968 138.455 119.272 137.927 119.88C137.415 120.472 137.159 121.288 137.159 122.328V127.968C137.159 128.336 137.047 128.624 136.823 128.832C136.599 129.024 136.311 129.12 135.959 129.12C135.607 129.12 135.311 129.024 135.071 128.832C134.847 128.624 134.735 128.336 134.735 127.968V118.2C134.735 117.848 134.855 117.568 135.095 117.36C135.335 117.152 135.623 117.048 135.959 117.048C136.295 117.048 136.567 117.152 136.775 117.36C136.999 117.552 137.111 117.824 137.111 118.176V119.064C137.463 118.392 137.951 117.88 138.575 117.528C139.199 117.176 139.919 117 140.735 117C141.631 117 142.367 117.184 142.943 117.552C143.535 117.92 143.975 118.488 144.263 119.256C144.615 118.568 145.135 118.024 145.823 117.624C146.511 117.208 147.295 117 148.175 117ZM160.518 129.168C159.366 129.168 158.35 128.92 157.47 128.424C156.606 127.928 155.934 127.224 155.454 126.312C154.99 125.384 154.758 124.312 154.758 123.096C154.758 121.864 154.99 120.792 155.454 119.88C155.934 118.952 156.606 118.24 157.47 117.744C158.35 117.248 159.366 117 160.518 117C161.67 117 162.678 117.248 163.542 117.744C164.422 118.24 165.094 118.952 165.558 119.88C166.038 120.792 166.278 121.864 166.278 123.096C166.278 124.312 166.038 125.384 165.558 126.312C165.094 127.224 164.422 127.928 163.542 128.424C162.678 128.92 161.67 129.168 160.518 129.168ZM160.518 127.248C161.59 127.248 162.406 126.896 162.966 126.192C163.542 125.488 163.83 124.456 163.83 123.096C163.83 121.752 163.542 120.728 162.966 120.024C162.39 119.304 161.574 118.944 160.518 118.944C159.462 118.944 158.646 119.304 158.07 120.024C157.494 120.728 157.206 121.752 157.206 123.096C157.206 124.456 157.486 125.488 158.046 126.192C158.622 126.896 159.446 127.248 160.518 127.248ZM182.417 117C185.041 117 186.353 118.576 186.353 121.728V127.968C186.353 128.336 186.241 128.624 186.017 128.832C185.793 129.024 185.497 129.12 185.129 129.12C184.777 129.12 184.489 129.024 184.265 128.832C184.041 128.624 183.929 128.336 183.929 127.968V121.752C183.929 120.776 183.753 120.072 183.401 119.64C183.049 119.192 182.497 118.968 181.745 118.968C180.865 118.968 180.169 119.272 179.657 119.88C179.145 120.472 178.889 121.288 178.889 122.328V127.968C178.889 128.336 178.777 128.624 178.553 128.832C178.329 129.024 178.033 129.12 177.665 129.12C177.313 129.12 177.025 129.024 176.801 128.832C176.577 128.624 176.465 128.336 176.465 127.968V121.752C176.465 120.776 176.289 120.072 175.937 119.64C175.585 119.192 175.033 118.968 174.281 118.968C173.401 118.968 172.697 119.272 172.169 119.88C171.657 120.472 171.401 121.288 171.401 122.328V127.968C171.401 128.336 171.289 128.624 171.065 128.832C170.841 129.024 170.553 129.12 170.201 129.12C169.849 129.12 169.553 129.024 169.313 128.832C169.089 128.624 168.977 128.336 168.977 127.968V118.2C168.977 117.848 169.097 117.568 169.337 117.36C169.577 117.152 169.865 117.048 170.201 117.048C170.537 117.048 170.809 117.152 171.017 117.36C171.241 117.552 171.353 117.824 171.353 118.176V119.064C171.705 118.392 172.193 117.88 172.817 117.528C173.441 117.176 174.161 117 174.977 117C175.873 117 176.609 117.184 177.185 117.552C177.777 117.92 178.217 118.488 178.505 119.256C178.857 118.568 179.377 118.024 180.065 117.624C180.753 117.208 181.537 117 182.417 117ZM198.84 126.048C199.064 126.048 199.248 126.136 199.392 126.312C199.536 126.488 199.608 126.712 199.608 126.984C199.608 127.448 199.32 127.84 198.744 128.16C198.184 128.48 197.568 128.728 196.896 128.904C196.24 129.08 195.608 129.168 195 129.168C193.144 129.168 191.68 128.632 190.608 127.56C189.536 126.472 189 124.992 189 123.12C189 121.92 189.232 120.856 189.696 119.928C190.176 119 190.84 118.28 191.688 117.768C192.552 117.256 193.528 117 194.616 117C196.184 117 197.424 117.504 198.336 118.512C199.248 119.52 199.704 120.88 199.704 122.592C199.704 123.232 199.416 123.552 198.84 123.552H191.424C191.584 126.032 192.776 127.272 195 127.272C195.592 127.272 196.104 127.192 196.536 127.032C196.968 126.872 197.424 126.664 197.904 126.408C197.952 126.376 198.08 126.312 198.288 126.216C198.512 126.104 198.696 126.048 198.84 126.048ZM194.664 118.776C193.736 118.776 192.992 119.072 192.432 119.664C191.872 120.256 191.536 121.088 191.424 122.16H197.616C197.568 121.072 197.288 120.24 196.776 119.664C196.28 119.072 195.576 118.776 194.664 118.776ZM208.687 117C211.487 117 212.887 118.576 212.887 121.728V127.968C212.887 128.336 212.775 128.624 212.551 128.832C212.343 129.024 212.047 129.12 211.663 129.12C211.295 129.12 210.999 129.016 210.775 128.808C210.567 128.6 210.463 128.32 210.463 127.968V121.848C210.463 120.856 210.263 120.128 209.863 119.664C209.479 119.2 208.871 118.968 208.039 118.968C207.063 118.968 206.279 119.272 205.687 119.88C205.095 120.488 204.799 121.304 204.799 122.328V127.968C204.799 128.32 204.687 128.6 204.463 128.808C204.255 129.016 203.967 129.12 203.599 129.12C203.231 129.12 202.935 129.016 202.711 128.808C202.487 128.6 202.375 128.32 202.375 127.968V118.2C202.375 117.864 202.487 117.592 202.711 117.384C202.951 117.16 203.247 117.048 203.599 117.048C203.951 117.048 204.231 117.152 204.439 117.36C204.647 117.568 204.751 117.84 204.751 118.176V119.16C205.135 118.456 205.671 117.92 206.359 117.552C207.047 117.184 207.823 117 208.687 117ZM221.939 127.272C222.291 127.304 222.539 127.4 222.683 127.56C222.843 127.704 222.923 127.912 222.923 128.184C222.923 128.504 222.795 128.752 222.539 128.928C222.299 129.088 221.939 129.152 221.459 129.12L220.811 129.072C219.515 128.976 218.547 128.584 217.907 127.896C217.267 127.192 216.947 126.16 216.947 124.8V119.16H215.507C214.803 119.16 214.451 118.848 214.451 118.224C214.451 117.936 214.539 117.712 214.715 117.552C214.907 117.376 215.171 117.288 215.507 117.288H216.947V114.816C216.947 114.448 217.051 114.16 217.259 113.952C217.483 113.744 217.779 113.64 218.147 113.64C218.515 113.64 218.811 113.744 219.035 113.952C219.259 114.16 219.371 114.448 219.371 114.816V117.288H221.747C222.083 117.288 222.339 117.376 222.515 117.552C222.707 117.712 222.803 117.936 222.803 118.224C222.803 118.528 222.707 118.76 222.515 118.92C222.339 119.08 222.083 119.16 221.747 119.16H219.371V124.968C219.371 125.72 219.523 126.272 219.827 126.624C220.147 126.976 220.627 127.176 221.267 127.224L221.939 127.272ZM229.752 129.168C228.6 129.168 227.584 128.92 226.704 128.424C225.84 127.928 225.168 127.224 224.688 126.312C224.224 125.384 223.992 124.312 223.992 123.096C223.992 121.864 224.224 120.792 224.688 119.88C225.168 118.952 225.84 118.24 226.704 117.744C227.584 117.248 228.6 117 229.752 117C230.904 117 231.912 117.248 232.776 117.744C233.656 118.24 234.328 118.952 234.792 119.88C235.272 120.792 235.512 121.864 235.512 123.096C235.512 124.312 235.272 125.384 234.792 126.312C234.328 127.224 233.656 127.928 232.776 128.424C231.912 128.92 230.904 129.168 229.752 129.168ZM229.752 127.248C230.824 127.248 231.64 126.896 232.2 126.192C232.776 125.488 233.064 124.456 233.064 123.096C233.064 121.752 232.776 120.728 232.2 120.024C231.624 119.304 230.808 118.944 229.752 118.944C228.696 118.944 227.88 119.304 227.304 120.024C226.728 120.728 226.44 121.752 226.44 123.096C226.44 124.456 226.72 125.488 227.28 126.192C227.856 126.896 228.68 127.248 229.752 127.248Z" fill="#8FA7B3"/>
<path d="M157.222 22.3313V53.4038C157.222 65.7365 146.902 75.7351 134.174 75.7351H131.842L119.937 87.2622C119.471 87.7139 118.826 88 118.111 88C117.451 88 116.852 87.7666 116.394 87.3751L116.192 87.1793L116.184 87.1718L104.38 75.7351H102.041C89.3198 75.7351 79 65.7365 79 53.4038V22.3313C79 9.99863 89.3198 0 102.049 0H134.174C146.902 0 157.222 9.99863 157.222 22.3313Z" fill="#D3E2E5"/>
<path d="M109.73 32.3808H96.0381V25.6901C96.0381 21.9967 99.1049 18.9995 102.884 18.9995C106.664 18.9995 109.73 21.9967 109.73 25.6901V32.3808Z" fill="white"/>
<path d="M138.648 32.3808H124.956V25.6901C124.956 21.9967 128.022 18.9995 131.802 18.9995C135.581 18.9995 138.648 21.9967 138.648 25.6901V32.3808Z" fill="white"/>
<rect x="104.667" y="47.667" width="25.6667" height="11" rx="4" fill="white"/>
</svg>
