<svg width="574" height="214" viewBox="0 0 574 214" fill="none" xmlns="http://www.w3.org/2000/svg">
<g style="mix-blend-mode:darken">
<rect width="574" height="214" rx="20" fill="url(#paint0_linear)"/>
</g>
<path fill-rule="evenodd" clip-rule="evenodd" d="M263.825 84.7192C260.2 84.7192 255.897 85.4903 251.197 90.9579V75.6566C251.197 71.7912 248.07 68.6468 244.225 68.6468C240.381 68.6468 237.254 71.7912 237.254 75.6566V125.556C237.254 129.421 240.381 132.566 244.225 132.566C248.07 132.566 251.197 129.421 251.197 125.556V106.189C251.197 100.621 253.826 97.5471 258.616 97.5471C263.307 97.5471 265.777 100.531 265.777 106.189V125.556C265.777 129.421 268.904 132.566 272.748 132.566C276.592 132.566 279.719 129.421 279.719 125.556V102.123C279.709 91.2283 273.774 84.7192 263.825 84.7192ZM303.861 85.0599C298.184 85.0599 293.683 85.8009 289.271 87.4632C286.98 88.3244 285.446 90.5475 285.446 92.9909C285.446 96.2555 288.026 98.809 291.322 98.809C291.999 98.809 292.567 98.7089 293.344 98.4485C296.023 97.6073 298.851 97.2068 302.008 97.2068C309.497 97.2068 311.091 101.363 311.111 104.877C308.511 104.026 305.235 103.245 300.664 103.245C288.753 103.245 281.921 108.723 281.921 118.286V118.456C281.921 127.098 288.374 132.906 297.975 132.906C303.383 132.906 307.715 131.254 311.171 127.869C311.758 130.343 314.118 132.576 317.743 132.576C321.558 132.576 324.545 129.612 324.545 125.827V105.168C324.545 98.6688 322.852 93.6618 319.496 90.2972C316.031 86.8223 310.772 85.0599 303.861 85.0599ZM301.839 122.863C297.885 122.863 295.435 120.98 295.435 117.946V117.775C295.435 114.16 298.443 112.098 303.691 112.098C306.38 112.098 309.059 112.628 311.28 113.59V115.502C311.28 119.828 307.396 122.863 301.839 122.863ZM343.228 91.0786C346.834 86.8026 351.275 84.7197 356.773 84.7197C367.26 84.7197 377.866 92.9612 377.866 108.723V108.893C377.866 116.154 375.645 122.302 371.452 126.688C367.618 130.704 362.41 132.907 356.773 132.907C351.345 132.907 347.033 131.044 343.298 127.079V139.095C343.298 142.961 340.171 146.105 336.327 146.105C332.483 146.105 329.356 142.961 329.356 139.095V92.07C329.356 88.2046 332.483 85.0602 336.327 85.0602C339.842 85.0602 342.75 87.6839 343.228 91.0786ZM363.933 108.723C363.933 101.924 359.442 96.7866 353.486 96.7866C347.491 96.7866 343.129 101.804 343.129 108.723V108.893C343.129 115.813 347.481 120.83 353.486 120.83C359.541 120.83 363.933 115.813 363.933 108.893V108.723ZM408.5 84.7197C403.002 84.7197 398.56 86.8026 394.955 91.0786C394.477 87.6839 391.569 85.0602 388.054 85.0602C384.21 85.0602 381.082 88.2046 381.082 92.07V139.095C381.082 142.961 384.21 146.105 388.054 146.105C391.898 146.105 395.025 142.961 395.025 139.095V127.079C398.76 131.044 403.072 132.907 408.5 132.907C414.136 132.907 419.345 130.704 423.179 126.688C427.372 122.302 429.593 116.154 429.593 108.893V108.723C429.593 92.9612 418.986 84.7197 408.5 84.7197ZM405.213 96.7866C411.169 96.7866 415.66 101.924 415.66 108.723V108.893C415.66 115.813 411.268 120.83 405.213 120.83C399.208 120.83 394.856 115.813 394.856 108.893V108.723C394.856 101.804 399.218 96.7866 405.213 96.7866ZM460.695 90.3474C461.989 86.8826 464.3 85.06 467.377 85.06C471.092 85.06 474.01 87.914 474 91.539C474 92.5905 473.661 94.1126 473.363 94.8136L457.637 132.786C453.684 142.41 449.561 145.825 441.882 145.825C439.173 145.825 437.092 145.464 434.702 144.603C433.059 144.002 430.29 142.44 430.29 138.735C430.29 135.09 433.148 132.917 435.907 132.917C437.002 132.917 437.66 133.107 438.187 133.287C439.273 133.628 439.87 133.768 440.697 133.768C442.788 133.768 443.665 133.427 444.721 131.395L445.039 130.633L429.742 94.9939C429.394 94.1126 429.025 92.7507 429.025 91.7994C429.025 87.954 431.983 85.05 435.907 85.05C439.143 85.05 441.334 86.7524 442.589 90.2573L451.801 115.162L460.695 90.3474Z" fill="white"/>
<path d="M198.959 78.4367V119.396C198.959 135.653 185.772 148.833 169.506 148.833H166.527L151.313 164.027C150.717 164.623 149.893 165 148.98 165C148.136 165 147.371 164.692 146.785 164.176L146.527 163.918L146.517 163.908L131.433 148.833H128.444C112.188 148.833 99 135.653 99 119.396V78.4367C99 62.18 112.188 49 128.454 49H169.506C185.772 49 198.959 62.18 198.959 78.4367Z" fill="#FFD666"/>
<path d="M122.273 105.741C119.374 105.741 117.721 109.044 119.403 111.428C125.945 120.716 136.762 126.772 148.984 126.772C161.207 126.772 172.014 120.706 178.555 111.428C180.238 109.044 178.585 105.741 175.685 105.741H122.273Z" fill="white"/>
<path d="M139.256 91.6845H121.759V82.865C121.759 77.9964 125.678 74.0456 130.508 74.0456C135.337 74.0456 139.256 77.9964 139.256 82.865V91.6845Z" fill="white"/>
<path d="M176.211 91.6845H158.713V82.865C158.713 77.9964 162.632 74.0456 167.462 74.0456C172.292 74.0456 176.211 77.9964 176.211 82.865V91.6845Z" fill="white"/>
<defs>
<linearGradient id="paint0_linear" x1="574" y1="214" x2="502.903" y2="-110.264" gradientUnits="userSpaceOnUse">
<stop stop-color="#28E7B1"/>
<stop offset="1" stop-color="#17D6EB"/>
</linearGradient>
</defs>
</svg>
